<svg class="svg-icon" style="width: 1em; height: 1em;vertical-align: middle;fill: currentColor;overflow: hidden;" viewBox="0 0 1024 1024" version="1.1" xmlns="http://www.w3.org/2000/svg"><path d="M512 466.285714a45.714286 45.714286 0 1 0 91.428571 0 45.714286 45.714286 0 1 0-91.428571 0z m419.428571 403.314286L722.628571 329.142857V130.285714H804.571429v-77.714285H219.428571v77.714285h81.942858v198.857143L92.571429 869.6c-3.2 8.457143-4.914286 17.371429-4.914286 26.4 0 40.342857 32.8 73.142857 73.142857 73.142857h702.4c9.028571 0 17.942857-1.714286 26.4-4.914286 37.714286-14.514286 56.457143-56.914286 41.828571-94.628571zM379.085714 343.657143V132.571429h265.828572v211.085714L748.8 612.571429c-23.657143-6.057143-48.114286-9.142857-73.028571-9.142858-69.942857 0-136.228571 24.571429-188.914286 68.571429a215.748571 215.748571 0 0 1-138.628572 50.171429c-37.371429 0-73.257143-9.485714-104.914285-27.085715l135.771428-351.428571zM167.428571 891.428571l47.657143-123.2c40.8 20.685714 86.171429 31.771429 133.257143 31.771429 69.942857 0 136.228571-24.571429 188.914286-68.571429 38.742857-32.228571 87.2-50.171429 138.628571-50.171428 40 0 78.171429 10.857143 111.542857 30.971428L856.571429 891.428571h-689.142858z"  /></svg>